<?xml version="1.0" encoding="utf-8"?>
<!-- Generator: Adobe Illustrator 16.0.0, SVG Export Plug-In . SVG Version: 6.00 Build 0)  -->
<!DOCTYPE svg PUBLIC "-//W3C//DTD SVG 1.1//EN" "http://www.w3.org/Graphics/SVG/1.1/DTD/svg11.dtd">
<svg version="1.1" id="Layer_1" xmlns="http://www.w3.org/2000/svg" xmlns:xlink="http://www.w3.org/1999/xlink" x="0px" y="0px"
	 width="512px" height="512px" viewBox="0 0 512 512" enable-background="new 0 0 512 512" xml:space="preserve">
<circle cx="224.28" cy="122.335" r="99.792"/>
<path d="M290.18,372.258c0-33.578,27.221-60.801,60.799-60.801h41.115c-14.369-46.129-40.139-84.935-72.908-110.761
	c-22.576,27.31-56.707,44.716-94.906,44.716c-38.198,0-72.333-17.406-94.908-44.716C78.028,241.16,43.821,313.459,43.821,395.931
	c0,0,74.015,26.611,178.796,26.611c24.189,0,46.912-1.42,67.563-3.602V372.258z"/>
<path d="M415.059,323.457h-59.76c-29.336,0-53.119,23.783-53.119,53.121v59.76c0,29.336,23.783,53.119,53.119,53.119h59.76
	c29.338,0,53.121-23.783,53.121-53.119v-59.76C468.18,347.24,444.397,323.457,415.059,323.457z M428.86,423.5H400.5v27.457
	c0,8.838-7.164,16-16,16s-16-7.162-16-16V423.5H340.86c-8.836,0-16-7.164-16-16s7.164-16,16-16H368.5v-28.543
	c0-8.836,7.164-16,16-16s16,7.164,16,16V391.5h28.359c8.838,0,16,7.164,16,16S437.698,423.5,428.86,423.5z"/>
</svg>
